<?xml version="1.0" encoding="utf-8"?>
<!-- Generator: Adobe Illustrator 24.1.0, SVG Export Plug-In . SVG Version: 6.00 Build 0)  -->
<svg version="1.1" id="Capa_1" xmlns="http://www.w3.org/2000/svg" xmlns:xlink="http://www.w3.org/1999/xlink" x="0px" y="0px"
	 viewBox="0 0 500 500" style="enable-background:new 0 0 500 500;" xml:space="preserve">
<style type="text/css">
	.st0{display:none;}
	.st1{fill:#F6F6F6;}
	.st2{fill:#003200;}
	.st3{fill:#60A73D;}
</style>
<g id="Capa_1_1_" class="st0">
	
		<image style="display:inline;overflow:visible;enable-background:new    ;" width="477" height="477" xlink:href="Arbol Prueba.png"  transform="matrix(1 0 0 1 11 11)">
	</image>
</g>
<g id="Capa_3">
	<circle class="st1" cx="250" cy="250" r="228"/>
</g>
<g id="Capa_2_1_">
	<path class="st2" d="M243.5,445.5c0,0-13-134-6-138s52-63,52-63l-11-14l-46,50l-5-75h-15l-5,116l-55-61l-9,9l56,75c0,0,7,62-1,95
		C216.5,443.5,226.5,443.5,243.5,445.5z"/>
	<path class="st3" d="M296.5,249.5c0,0,45,57,99-9c-41-31-94-10-99,0c18-3,55,5,55,5S305.5,243.5,296.5,249.5z"/>
	<path class="st3" d="M286.5,228.5c0,0,10-30,22-38c0,0-15,30-15,42c29-8,48-41,28-79C286.5,163.5,276.5,225.5,286.5,228.5z"/>
	<path class="st3" d="M228.5,186.5c0,0,27-26,45-28c-16,9-31,23-38,34c67,10,71-56,72-66C258.5,123.5,223.5,175.5,228.5,186.5z"/>
	<path class="st3" d="M217.5,156.5c0,0-4-31,8-55c-2,11-1,56,2,56c48-38,15-102-3-106C185.5,88.5,205.5,151.5,217.5,156.5z"/>
	<path class="st3" d="M211.5,188.5c0,0-21-8-35-26c8,4,34,21,38,19c-11-53-53-41-74-36C153.5,181.5,195.5,196.5,211.5,188.5z"/>
	<path class="st3" d="M157.5,256.5c0,0,9-24,17-31c-3,8-11,29-10,34c35-13,31-53,20-65C153.5,206.5,152.5,255.5,157.5,256.5z"/>
	<path class="st3" d="M140.5,256.5c0,0-24-26-24-39c5,9,26,33,30,33c8-48-34-64-58-63C87.5,236.5,131.5,256.5,140.5,256.5z"/>
	<path class="st3" d="M133.5,279.5c0,0-22,4-44-3c17,1,42-2,43-5c-30-33-74-7-82,10C91.5,312.5,132.5,284.5,133.5,279.5z"/>
	<path class="st3" d="M147.5,298.5c0,0-20,26-30,30c9-10,25-31,24-35c-57,7-47,60-46,68C132.5,355.5,154.5,312.5,147.5,298.5z"/>
	<path class="st2" d="M332.6,439c0,0-5.4-51-2.5-52.5c2.9-1.5,21.7-24,21.7-24l-4.6-5.3l-19.2,19l-2.1-28.5h-6.3l-2.1,44.2l-23-23.2
		l-3.8,3.4l23.4,28.5c0,0,2.9,23.6-0.4,36.2C321.3,438.2,325.5,438.2,332.6,439z"/>
	<path class="st3" d="M354.7,364.4c0,0,18.8,21.7,41.3-3.4c-17.1-11.8-39.2-3.8-41.3,0c7.5-1.1,23,1.9,23,1.9
		S358.4,362.1,354.7,364.4z"/>
	<path class="st3" d="M350.5,356.4c0,0,4.2-11.4,9.2-14.5c0,0-6.3,11.4-6.3,16c12.1-3,20-15.6,11.7-30.1
		C350.5,331.6,346.3,355.2,350.5,356.4z"/>
	<path class="st3" d="M326.3,340.4c0,0,11.3-9.9,18.8-10.7c-6.7,3.4-12.9,8.8-15.9,12.9c28,3.8,29.6-21.3,30-25.1
		C338.8,316.4,324.2,336.2,326.3,340.4z"/>
	<path class="st3" d="M321.7,329c0,0-1.7-11.8,3.3-20.9c-0.8,4.2-0.4,21.3,0.8,21.3c20-14.5,6.3-38.8-1.3-40.4
		C308.4,303.1,316.7,327.1,321.7,329z"/>
	<path class="st3" d="M319.2,341.2c0,0-8.8-3-14.6-9.9c3.3,1.5,14.2,8,15.9,7.2c-4.6-20.2-22.1-15.6-30.9-13.7
		C295,338.5,312.5,344.2,319.2,341.2z"/>
	<path class="st3" d="M296.7,367c0,0,3.8-9.1,7.1-11.8c-1.3,3-4.6,11-4.2,12.9c14.6-5,12.9-20.2,8.4-24.8
		C295,348,294.6,366.7,296.7,367z"/>
	<path class="st3" d="M289.6,367c0,0-10-9.9-10-14.9c2.1,3.4,10.9,12.6,12.5,12.6c3.3-18.3-14.2-24.4-24.2-24
		C267.4,359.4,285.8,367,289.6,367z"/>
	<path class="st3" d="M286.6,375.8c0,0-9.2,1.5-18.4-1.1c7.1,0.4,17.5-0.8,18-1.9c-12.5-12.6-30.9-2.7-34.2,3.8
		C269.1,388.4,286.2,377.7,286.6,375.8z"/>
	<path class="st3" d="M292.5,383c0,0-8.4,9.9-12.5,11.4c3.8-3.8,10.4-11.8,10-13.3c-23.8,2.7-19.6,22.8-19.2,25.9
		C286.2,404.7,295.4,388.4,292.5,383z"/>
</g>
</svg>
